<svg width="960" height="68" version="1.1" viewBox="0 0 960 68" xmlns="http://www.w3.org/2000/svg"><g><path d="m1.485e-4 36.75 1.48e-4 -31.25 22.105-0.4181 14.395-1.0804 42-1.9146 51-1.5869h40l52 1.5885 36.014 1.8938 9.9865 0.93403 33 2.1111 7 0.92205 16 1.1438 10 0.96111 7 0.96424 22 1.9236 38 4.0946 7 0.936 19 1.9994 4 0.78088 16 1.3928 19 2.6738 14 1.3924 4 0.80199 28 3.4408 10-0.179 47-3.1862 22-1.0902 43-1.9894 20-0.98053 46-1.1927 4.5496-0.71324 71.45-1.3073 12-0.66514 172.5-1.4784v50.327h-960z" fill="#da0404"/><path d="m904.5 60.058c-25.41-0.35929-44.319-1.1016-68-2.0331l-14-0.55066-26-1.078-47-2.9821-28-2.0109-27-1.9188-10-0.99568-31.234-2.9486-10.766-1.0712-28-2.9477-27-3.1292-26-2.8743-10-1.1508-15-1.9325-5-0.58969c-4.3801-0.49669-9.2674-1.1843-13.053-1.4566 14.593-1.6657 24.853-2.1724 39.053-2.9597l32-1.8259 27-1.1566 14-0.91683 24-1.0185 45-1.1946 4.5496-0.70868 71.45-1.3073 12-0.66195 172.5-1.438v44.389l-6.4906-0.21013c-16.437-0.98637-34.383-1.0904-49.009-1.3215z" fill="#770c0c"/><path d="m5.5e-7 37v-31l9.25 1e-3 9.25 0.0011 67 3.9578 15 1.098 12 0.98137 29 1.9245 40 2.9973 24 2.0319 50 3.9928 36 3.0704 35 2.9416 22 1.9601 14 1.146 19 1.8318 28 2.087 10 1.0099 36 2.9929 37 2.9516 24 1.993 41 3.0285 43 2.9577 34 2.0525 11 0.91679 23 1.1419 33 1.9363 45 1.9827 47 1.9071 32 1.0943 69 1.9844 35 1.0071 30.5 0.02055v3h-960z" fill="#212227"/></g></svg>
