<svg width="150" height="150" overflow="hidden" version="1.1" xml:space="preserve" xmlns="http://www.w3.org/2000/svg"><defs><clipPath id="clip0"><rect x="338" y="428" width="140" height="114"/></clipPath></defs><g transform="matrix(.95814 0 0 1.0068 -315.17 -414.29)" clip-path="url(#clip0)"><path transform="matrix(1.2281 0 0 1 338 428)" d="m28.159 94.782c12.627-6.6264 23.868-15.61 33.116-26.465 5.2015-5.9435 9.6932-12.472 13.384-19.455 0.5176-0.9826 0.8874-2.0361 1.0973-3.1267 0.0288-0.1461-0.0662-0.2879-0.2122-0.3167-0.113-0.0224-0.2276 0.0295-0.2854 0.129-3.3698 5.7687-7.2464 11.226-11.584 16.307-10.435 12.35-23.505 22.205-38.249 28.841-1.9-2.4581-4.6835-3.0424-8.7935-3.889 3.971-3.2372 8.6973-3.2301 13.02-0.5036-0.4988-0.8431-1.032-1.6969-1.6174-2.5566-1.9052-2.8926-4.1973-5.5107-6.8127-7.7817 3.7074-2.1969 7.625-1.7421 11.05 3.2905 0.2672 0.3919 0.5106 0.8147 0.7541 1.235 0.3237-4.9518 1.5352-9.8053 3.5767-14.328 0.4413-0.9042 0.944-1.7771 1.5046-2.6125 0.1677-0.2485 0.5049-0.314 0.7533-0.1463 0.1244 0.0839 0.2084 0.2155 0.2323 0.3636 0.552 3.1616 1.7222 6.1833 3.4438 8.892 0.0497 0.0776 0.1357 0.1247 0.228 0.1247 0.0377 2e-4 0.075-0.0079 0.1092-0.0238 0.1254-0.053 0.1919-0.1907 0.1556-0.3218-0.0155-0.0546-0.0297-0.1092-0.0452-0.1639-1.809-7.067 0.1677-14.567 5.225-19.824 3.048-3.1969 5.8282-6.6387 8.3125-10.291 3.2158-4.7274 6.276-10.603 9.5107-16.064 0.1534-0.259 0.4879-0.3445 0.7468-0.191 0.1148 0.068 0.2005 0.1757 0.2412 0.3027 0.9809 3.2807 2.6396 6.3189 4.8688 8.9181 0.0508 0.0601 0.1255 0.0949 0.2042 0.095 0.0509-4e-4 0.1006-0.0148 0.1437-0.0416 0.1124-0.0714 0.1566-0.2135 0.1045-0.336-1.7513-4.0425-2.3821-8.482-1.8264-12.852 0.3239-2.5181 1.4256-4.8724 3.1517-6.7343 4.7001-5.0837 10.094-7.5857 16.862-4.2275 4.6835 2.3228 7.233 8.4705 7.0965 16.809-0.0702 4.4077-2.525 8.4309-6.4125 10.509-1.5772 0.8335-3.2414 1.4905-4.9626 1.9593-0.1438 0.0411-0.227 0.1909-0.1861 0.3347 0.032 0.1118 0.1317 0.1908 0.2478 0.1962 0.2696 0.0083 0.5404 0.013 0.8076 0.013 2.7116-0.0014 5.4041-0.4544 7.9669-1.3407 0.2787-0.1046 0.5896 0.0366 0.6942 0.3153 0.0384 0.1024 0.0448 0.214 0.0183 0.32-1.798 6.5597-4.422 12.864-7.809 18.762-3.7915 6.7506-8.3155 13.063-13.49 18.822-3.5971 3.9949-8.6542 6.369-14.026 6.5847-1.7468 0.053-3.4943-0.0832-5.2119-0.4061-0.1306-0.0235-0.2591 0.0508-0.304 0.1757-0.0441 0.1263 0.0109 0.2658 0.1294 0.3278 2.3251 1.2244 4.8331 2.0644 7.4267 2.4878 0.2923 0.0527 0.4867 0.3324 0.434 0.6247-0.0264 0.1465-0.1121 0.2753-0.2369 0.3562-7.1143 4.484-14.939 6.4125-22.884 3.192 0.9769 0.9546 1.859 2.0017 2.6338 3.1267 3.4224 5.0338 2.4059 8.8447-0.9998 11.486-1.151-3.267-2.7435-6.3605-4.7334-9.1951-0.7541-1.1091-1.5295-2.147-2.3049-3.1088 0.3384 5.5349-2.1649 9.9199-7.2925 11.674 1.5806-4.27 2.6006-7.0498 1.0284-10.272z" fill="#c00000" stroke="#000" stroke-width="2.4428"/></g></svg>
