<svg width="150" height="150" overflow="hidden" version="1.1" xml:space="preserve" xmlns="http://www.w3.org/2000/svg"><defs><clipPath id="clip0"><rect x="572" y="202" width="163" height="166"/></clipPath></defs><g transform="matrix(.6699 0 0 .70257 -362.79 -125.84)" clip-path="url(#clip0)" fill="#00b0f0" stroke="#000" stroke-width="6.7917"><path transform="matrix(1,0,0,1.0184,572,202)" d="m59.188 39.246c-1.231-0.8948-2.9299-0.7608-4.0054 0.3159-6.7594 6.73-10.562 15.874-10.566 25.413 0.0203 4.4524 1.0099 8.8471 2.9 12.879 2.0743-2.778 5.3488-4.4007 8.8156-4.3688 1.9648 0.4673 3.8441 1.2404 5.5691 2.2905l0.7081 0.3668c0.6333 0.3625 0.9478 1.1024 0.7691 1.81-1.2877 4.5938-4.5928 8.3537-8.9836 10.22v0.0204c4.9884 5.4333 9.6085 9.4913 11.429 20.61 1.1971 7.365-3.803 14.306-11.168 15.503-2.5011 0.406-5.0663 0.101-7.4023-0.881-9.1536-3.813-16.944-10.299-22.355-18.609-4.1167 2.347-9.0745 2.706-13.486 0.976-0.6506-0.28-1.0231-0.971-0.8999-1.669l0.1223-0.764c0.1873-2.016 0.6903-3.9905 1.4907-5.8507 0.8043-1.1446 1.8361-2.1111 3.0308-2.839 1.2901-0.7661 2.7187-1.2697 4.204-1.4822-1.4827-4.6781-2.2353-9.5571-2.231-14.465 0.1114-21.587 14.439-40.517 35.184-46.487 1.5553-0.4531 2.7579-1.6906 3.1666-3.2583 1.4592-4.6059 4.8435-8.353 9.2774-10.272 1.8318-0.8735 3.7888-1.455 5.8001-1.7234 0.9093 2.9769 0.46 6.2033-1.2276 8.8189-1.3909 2.3727-0.5951 5.4239 1.7778 6.8148 0.2407 0.1411 0.4929 0.2618 0.7538 0.3606 2.9712 0.9743 5.3602 3.2115 6.5268 6.1125-1.737 1.0509-3.6274 1.8238-5.6031 2.2905-4.6282 1.273-9.5802 0.497-13.597-2.1309z"/><path transform="matrix(1,0,0,1.0184,572,202)" d="m152.37 61.346c-0.187 2.0165-0.69 3.9908-1.49 5.851-0.805 1.1446-1.836 2.1111-3.031 2.839-1.29 0.7661-2.719 1.2697-4.204 1.4822 1.483 4.6782 2.235 9.5571 2.231 14.465-0.116 21.586-14.446 40.514-35.191 46.482-1.556 0.452-2.76 1.69-3.168 3.258-1.46 4.606-4.844 8.353-9.2778 10.272-1.8318 0.874-3.7888 1.455-5.8001 1.724-0.9105-2.981-0.4593-6.212 1.2327-8.829 1.389-2.368 0.5959-5.413-1.7713-6.802-0.2416-0.142-0.495-0.263-0.7569-0.362-2.9763-0.975-5.3689-3.216-6.5353-6.123 1.7369-1.05 3.6274-1.823 5.6031-2.29 4.6297-1.272 9.5824-0.493 13.599 2.138 1.23 0.894 2.928 0.761 4.004-0.315 6.759-6.73 10.561-15.874 10.566-25.412-0.021-4.4524-1.01-8.8471-2.9-12.879-2.075 2.778-5.349 4.4007-8.816 4.3688-1.965-0.4673-3.844-1.2402-5.569-2.2905l-0.708-0.3668c-0.6333-0.3625-0.9478-1.1024-0.7691-1.8099 1.2881-4.5939 4.5931-8.3538 8.9841-10.22v-0.0187c-4.994-5.4333-9.6158-9.4998-11.432-20.64-1.1932-7.3569 3.8035-14.288 11.16-15.481 2.496-0.4048 5.056-0.1002 7.388 0.8794 9.168 3.8113 16.971 10.302 22.388 18.623 4.116-2.3474 9.074-2.7061 13.485-0.9763 0.651 0.2798 1.025 0.9709 0.902 1.6691z"/></g></svg>
