<svg width="150" height="150" overflow="hidden" version="1.1" xml:space="preserve" xmlns="http://www.w3.org/2000/svg"><defs><clipPath id="clip0"><rect x="317" y="196" width="183" height="180"/></clipPath></defs><g transform="matrix(.7983 0 0 .74869 -251.74 -139.12)" clip-path="url(#clip0)"><path transform="matrix(1.0167 0 0 1 317 196)" d="m138.92 96.581c-5.343-2.6863-10.915-4.8888-16.65-6.5812 5.735-1.6924 11.307-3.8949 16.65-6.5812 8.673-5.1668 11.698-16.273 6.843-25.125-2.463-4.2372-6.51-7.32-11.25-8.5688-4.692-1.3307-9.723-0.7086-13.949 1.725-5.671 3.8951-10.858 8.4523-15.45 13.575 2.108-6.5376 3.424-13.305 3.918-20.156-0.323-10.102-8.774-18.028-18.876-17.705-9.6473 0.3088-17.396 8.0576-17.705 17.705 0.4852 6.8525 1.8011 13.621 3.9188 20.156-4.5938-5.1283-9.7874-9.6861-15.469-13.575-4.2261-2.4356-9.2578-3.0577-13.95-1.725-4.7383 1.2506-8.7853 4.3331-11.25 8.5688-4.8549 8.8516-1.8296 19.958 6.8438 25.125 5.3793 2.691 10.989 4.8935 16.762 6.5812-5.7283 1.6952-11.294 3.8976-16.631 6.5812-8.6734 5.1668-11.699 16.274-6.8437 25.125 2.4646 4.236 6.5116 7.318 11.25 8.569 1.6254 0.444 3.3024 0.671 4.9875 0.675 3.1475 9e-3 6.2407-0.819 8.9624-2.4 5.6815-3.889 10.875-8.447 15.469-13.575-2.1176 6.535-3.4335 13.304-3.9188 20.156 0.3235 10.102 8.7747 18.029 18.876 17.705 9.6474-0.309 17.396-8.057 17.705-17.705-0.495-6.851-1.811-13.618-3.919-20.156 4.592 5.123 9.779 9.68 15.45 13.575 2.729 1.579 5.828 2.407 8.981 2.4 1.679-3e-3 3.35-0.23 4.969-0.675 4.739-1.249 8.787-4.332 11.25-8.569 4.832-8.885 1.746-20.002-6.975-25.125zm-48.132 11.813c-10.159-0.011-18.385-8.254-18.375-18.413 0.0103-10.159 8.2539-18.385 18.412-18.375 10.151 0.0104 18.375 8.2425 18.375 18.394-0.01 10.162-8.251 18.394-18.412 18.394z" fill="#ff0" stroke="#000" stroke-width="7.5"/></g></svg>
