<svg width="150" height="150" overflow="hidden" version="1.1" xml:space="preserve" xmlns="http://www.w3.org/2000/svg"><defs><clipPath id="clip0"><rect x="835" y="217" width="137" height="143"/></clipPath></defs><g transform="matrix(.75719 0 0 .81413 -607.04 -156.01)" clip-path="url(#clip0)" fill="#ffd966" stroke="#000" stroke-width="8.6333"><path transform="matrix(1,0,0,1.0438,835,217)" d="m67.073 17.838c-5.2802-2.5687-10.703-4.2812-16.126-4.9947 15.698 15.555 20.407 39.958 9.9896 60.936-10.275 20.978-32.823 31.824-54.515 28.827 3.8531 3.853 8.5625 7.278 13.7 9.847 26.116 12.987 57.797 2.284 70.641-23.832 12.844-26.116 2.426-57.654-23.69-70.783z"/><path transform="matrix(1,0,0,1.0438,835,217)" d="m124.01 77.776c-0.286-0.4281-0.286-0.9989 0-1.427l2.711-3.9959c0.285-0.5708 0.285-1.1416 0-1.5698-0.285-0.4281-0.999-0.7135-1.427-0.5708l-4.424 1.1417c-0.571 0.1427-1.142-0.1427-1.427-0.5709l-2.712-3.9958c-0.428-0.5708-0.999-0.7135-1.569-0.5708-0.571 0.1427-0.999 0.7135-0.999 1.2843l-0.286 4.8521c0 0.5709-0.428 0.999-0.999 1.2844l-4.424 0.999c-0.57 0.1427-0.999 0.5708-0.999 1.2843 0 0.5709 0.286 1.1417 0.857 1.2844l1.855 0.999 2.426 1.2843c0.143 0.1427 0.428 0.2855 0.571 0.5709 0.142 0.2854 0.142 0.4281 0.142 0.7135v4.8521c0 0.5708 0.286 1.1417 0.857 1.2844s1.141 0 1.569-0.4282l3.14-3.8531c0.428-0.4281 0.999-0.5708 1.57-0.4281l4.709 1.7125c0.571 0.1427 1.142 0 1.57-0.4281s0.428-1.1417 0.143-1.5698z"/><path transform="matrix(1,0,0,1.0438,835,217)" d="m110.46 42.242 3.853-6.9927c0.429-0.8563 1.285-1.2844 2.284-1.1417l7.849 1.2844c0.999 0.1427 1.855-0.2854 2.283-1.1417s0.285-1.9979-0.285-2.5687l-5.423-5.8511c-0.571-0.5708-0.714-1.5698-0.428-2.426l2.996-7.2782c0.286-0.8562 0.143-1.8552-0.428-2.426s-1.712-0.8562-2.426-0.4281l-6.707 3.2823c-0.856 0.4281-1.855 0.1427-2.426-0.4282l-5.423-5.4229c-0.714-0.71352-1.855-0.85622-2.711-0.5708-0.857 0.4281-1.285 1.4271-1.285 2.2833l0.999 7.5636c0.143 0.9989-0.285 1.8552-1.142 2.2833l-6.7068 3.2823c-0.8563 0.4281-1.2844 1.2844-1.1417 2.2833 0.1427 0.8563 0.8562 1.7125 1.7125 1.8552l3.2823 0.999 4.2817 1.2844c0.428 0.1427 0.713 0.4281 1.141 0.7135 0.286 0.2854 0.428 0.7135 0.571 1.1417l1.284 7.8489c0.143 0.999 0.857 1.7125 1.856 1.8552 0.999 0.1428 1.712-0.4281 2.14-1.2843z"/></g></svg>
