<svg width="150" height="150" version="1.1" viewBox="0 0 150 150" xmlns="http://www.w3.org/2000/svg"><g transform="matrix(.66635 0 0 .74506 25 25.004)"><g transform="translate(158.55,-6.1994)"><path d="m-90.647 140.24c-21.592-2.0471-40.284-11.488-53.246-26.894-5.9278-7.0455-10.691-16.312-12.935-25.166-1.3084-5.1614-1.7227-8.7311-1.7227-14.841 0-10.182 1.7373-17.689 6.2378-26.956 9.2738-19.095 28.602-33.571 51.192-38.341 27.107-5.7233 55.051 2.0573 73.57 20.485 9.9439 9.8944 16.219 21.959 18.542 35.649 0.69585 4.1009 0.7071 13.7 0.0211 18-1.0713 6.7144-2.7041 11.869-5.7402 18.12-10.259 21.123-32.033 35.979-57.919 39.515-4.007 0.54736-14.196 0.7907-18.001 0.42992zm13.818-4.0757c44.418-3.7706 74.007-42.513 61.535-80.57-6.753-20.606-25.328-37.021-48.545-42.897-34.42-8.712-70.539 6.3913-84.844 35.479-14.147 28.766-2.2794 62.298 27.927 78.907 12.954 7.1231 28.685 10.375 43.927 9.0811zm-9.7325-29.853c-8.9947-6.509-19.348-15.967-24.659-22.526-7.61-9.398-11.041-18.218-9.5526-24.555 0.91079-3.8773 2.6665-6.7757 5.9409-9.8072 2.1979-2.0348 4.4852-3.4023 7.496-4.4815 2.0405-0.73141 2.6849-0.82162 5.9258-0.82962 3.0527-0.0075 3.9618 0.10004 5.6639 0.67007 4.0331 1.3507 8.0248 4.2983 10.943 8.0802l1.2576 1.63 0.8617-1.1219c1.7993-2.3426 5.6079-5.7883 7.6121-6.8867 3.5344-1.9371 5.3052-2.3818 9.444-2.3716 3.2409 8e-3 3.8853 0.0982 5.9259 0.82962 3.0108 1.0792 5.2981 2.4467 7.496 4.4815 3.2743 3.0315 5.0301 5.9298 5.9409 9.8072 1.4886 6.3372-1.9426 15.157-9.5526 24.555-5.413 6.6848-17.144 17.327-25.575 23.202l-2.1564 1.5026zm6.1359-5.0835c13.185-10.045 23.543-21.005 27.751-29.361 1.825-3.624 2.5408-6.2047 2.5767-9.2906 0.0303-2.6053-0.0277-2.8886-1.0128-4.9455-1.8878-3.9417-5.081-6.916-9.2266-8.5944-2.7758-1.1238-6.5064-1.3136-9.2603-0.47106-4.6259 1.4152-8.6844 5.0289-12.029 10.711l-1.8884 3.2078-1.8934-3.2063c-3.3603-5.6904-7.4141-9.2989-12.034-10.712-2.7539-0.84252-6.4845-0.65275-9.2603 0.47106-4.1457 1.6784-7.3388 4.6528-9.2266 8.5944-0.9851 2.0568-1.0431 2.3402-1.0128 4.9455 0.0252 2.1592 0.19977 3.2576 0.7984 5.0223 2.8712 8.4639 10.825 18.195 23.606 28.879 4.3229 3.6139 8.5664 6.8259 9.0182 6.8259 0.2037 0 1.5961-0.9339 3.0943-2.0753z" stroke-width=".29091"/><path d="m-91.136 135.88c-22.991-2.8833-41.959-13.794-53.116-30.553-6.6178-9.9401-9.3041-18.188-9.707-29.803-0.29805-8.5915 0.41623-13.886 2.7502-20.384 6.5228-18.16 20.564-32.01 40.082-39.536 15.879-6.1228 35.373-6.6027 51.735-1.2734 20.183 6.5738 36.572 21.552 42.99 39.288 2.8641 7.9153 3.3503 10.877 3.3016 20.114-0.03907 7.4015-0.21026 9.0681-1.3821 13.454-5.5202 20.661-22.914 38.147-44.914 45.152-7.5043 2.3892-13.469 3.3563-22.011 3.569-4.3648 0.10864-8.7424 0.0964-9.728-0.0272zm13.147-31.081c20.758-15.48 33.513-32.944 32.223-44.117-0.68376-5.92-5.2853-11.915-11.48-14.957-2.4588-1.2075-3.6948-1.4587-7.907-1.6072-4.6781-0.16491-5.2019-0.07803-8.3166 1.3795-2.1279 0.99578-4.5334 2.7355-6.6851 4.8349l-3.3611 3.2795-3.2497-3.2497c-2.0827-2.0827-4.4163-3.8016-6.4984-4.7865-2.9084-1.3759-3.7644-1.5369-8.1719-1.5373-4.6016-3.77e-4 -5.1568 0.11645-8.4986 1.7883-4.1658 2.084-8.3782 6.2301-9.9577 9.8008-4.2872 9.6919 1.3399 22.09 16.824 37.068 6.4611 6.25 18.239 15.854 19.442 15.854 0.33428 0 2.8706-1.6875 5.6363-3.75z" fill="#f8aef6" stroke-width=".512"/></g><path d="m72.037 94.845c-13.064-9.8036-23.342-20.733-27.73-29.488-1.7949-3.5809-2.3496-5.4657-2.5134-8.5412-0.1231-2.3113-0.06556-2.8663 0.42453-4.095 1.79-4.4874 5.8494-8.4212 10.246-9.9289 2.36-0.80932 5.7662-1.0005 7.9279-0.44499 4.5403 1.1668 9.0415 4.9687 12.332 10.416 0.95585 1.5823 1.8698 3.0692 2.0309 3.3042 0.24304 0.35437 0.59277-0.06998 2.0496-2.487 5.5003-9.1254 12.087-12.921 19.42-11.193 4.3658 1.0291 8.8268 4.6663 10.973 8.9469l1.1396 2.2726-0.13569 3.0748c-0.15903 3.6032-0.72736 5.4988-2.8865 9.6275-4.0845 7.8104-14.862 19.146-26.843 28.232-3.7888 2.8733-3.0576 2.8388-6.436 0.3035z" fill="#fff" stroke="#fff" stroke-width=".26737"/></g></svg>
