<svg width="150" height="150" overflow="hidden" version="1.1" xml:space="preserve" xmlns="http://www.w3.org/2000/svg"><defs><clipPath id="clip0"><rect x="1045" y="217" width="143" height="143"/></clipPath></defs><g transform="matrix(.72406 0 0 .79099 -734.95 -146.7)" clip-path="url(#clip0)" fill="#1b9ba5" stroke="#000" stroke-width="3.0211"><path d="m1154.5 221.47c2.32 8.178 8.05 14.962 15.72 18.62-7.67 3.657-13.4 10.441-15.72 18.619-2.32-8.177-8.05-14.961-15.73-18.619 7.68-3.659 13.41-10.442 15.73-18.62z"/><path d="m1175.4 252.75c1.21 4.253 4.19 7.78 8.18 9.682-3.99 1.902-6.97 5.43-8.18 9.683-1.2-4.253-4.18-7.781-8.17-9.683 3.99-1.902 6.97-5.429 8.17-9.682z"/><path d="m1065.7 237.85c1.77 6.216 6.12 11.371 11.95 14.151-5.83 2.78-10.18 7.936-11.95 14.151-1.76-6.215-6.11-11.371-11.95-14.151 5.84-2.78 10.19-7.936 11.95-14.151z"/><path d="m1116.5 234.86-62.53 59.55 6.7 5.658 55.83-53 55.83 53 6.7-5.658z"/><path d="m1071.8 297.84v44.216h35.73v-37.218h17.86v37.218h35.73v-44.216l-44.66-42.43z"/></g></svg>
