<svg width="143" height="143" xmlns="http://www.w3.org/2000/svg" xmlns:xlink="http://www.w3.org/1999/xlink" xml:space="preserve" overflow="hidden"><defs><clipPath id="clip0"><rect x="1045" y="217" width="143" height="143"/></clipPath></defs><g clip-path="url(#clip0)" transform="translate(-1045 -217)"><path d="M1154.47 221.469 1154.47 221.469C1156.79 229.647 1162.52 236.431 1170.19 240.089L1170.19 240.089C1162.52 243.746 1156.79 250.53 1154.47 258.708L1154.47 258.708C1152.15 250.531 1146.42 243.747 1138.74 240.089L1138.74 240.089C1146.42 236.43 1152.15 229.647 1154.47 221.469Z" stroke="#000000" stroke-width="3.02113" fill="#1B9BA5"/><path d="M1175.35 252.75 1175.35 252.75C1176.56 257.003 1179.54 260.53 1183.53 262.432L1183.53 262.432C1179.54 264.334 1176.56 267.862 1175.35 272.115L1175.35 272.115C1174.15 267.862 1171.17 264.334 1167.18 262.432L1167.18 262.432C1171.17 260.53 1174.15 257.003 1175.35 252.75Z" stroke="#000000" stroke-width="3.02113" fill="#1B9BA5"/><path d="M1065.68 237.854 1065.68 237.854C1067.45 244.07 1071.8 249.225 1077.63 252.005L1077.63 252.005C1071.8 254.785 1067.45 259.941 1065.68 266.156L1065.68 266.156C1063.92 259.941 1059.57 254.785 1053.73 252.005L1053.73 252.005C1059.57 249.225 1063.92 244.069 1065.68 237.854Z" stroke="#000000" stroke-width="3.02113" fill="#1B9BA5"/><path d="M1116.46 234.865 1116.46 234.865 1053.93 294.415 1060.63 300.073 1116.46 247.073 1116.46 247.073 1172.29 300.073 1178.99 294.415 1116.46 234.865 1116.46 234.865Z" stroke="#000000" stroke-width="3.02113" fill="#1B9BA5"/><path d="M1071.8 297.84 1071.8 342.056 1107.53 342.056 1107.53 304.838 1125.39 304.838 1125.39 342.056 1161.12 342.056 1161.12 297.84 1116.46 255.41 1071.8 297.84 1071.8 297.84 1071.8 297.84Z" stroke="#000000" stroke-width="3.02113" fill="#1B9BA5"/></g></svg>