<?xml version="1.0" encoding="UTF-8" standalone="no"?>
<!-- Created with Inkscape (http://www.inkscape.org/) -->

<svg
   version="1.1"
   id="svg66"
   width="104.22882"
   height="143.65402"
   viewBox="0 0 104.22882 143.65402"
   xml:space="preserve"
   xmlns="http://www.w3.org/2000/svg"
   xmlns:svg="http://www.w3.org/2000/svg"><defs
     id="defs70" /><g
     id="g72"
     style="display:inline"
     transform="translate(424.49567,34.775641)"><path
       id="inner"
       style="display:inline;fill:#d91516;stroke:none"
       d="m -388.98766,-16.970868 c -2.203,1.3339 -0.2801,4.9981 2.0795,3.6574 2.4269,-1.3787 0.2343,-5.0584 -2.0795,-3.6574 m 28.8683,-13.477762 -1,4 4,-1 v -2 l -1,-1 h -2 m -50,3 -2,5 4,-5 h -2 m 6,16 h 1 l -1,-9 6,-5 c -8.7695,0.9849 -9.2158,7.0976 -6,14 m 26,-14 6,4 -1,5 h 1 c 2.302,-5.8289 -0.408,-7.6509 -6,-9 m -12,13 3,-3 -3,3 m 47,14.5332001 c -18.882,4.5607 -10.156,33.5161999 8,28.5091999 18.444,-5.0864 10.485,-32.9741999 -8,-28.5091999 m 2.001,0.8649 c 13.955,-3.02719999 19.785,19.3955999 5.998,23.1682999 -15.535,4.2511 -21.04,-19.9053999 -5.998,-23.1682999 m -35.001,0.6019 -3,2 4,2 -1,-4 m 37.004,1.588 c -10.849,2.8119 -6.786,18.6825999 3.981,15.8239999 9.691,-2.5731 5.99,-18.4084999 -3.981,-15.8239999 m -43.8998,4.3827 c -4.3762,1.1212999 -2.7824,8.4521999 1.6859,7.1388999 4.1939,-1.2328 2.7421,-8.2734999 -1.6859,-7.1388999 m 9.8958,3.0292999 3,10 c -3.466,2.6705 -3.756,5.5278 0,8 l -6,9 c 10.791,-3.2166 11.103,-20.4111 3,-27 m -6,11 c -5.7926,4.1188 -5.4569,7.5216 -7,14 5.6832,-1.9955 8.382,-8.1531 7,-14 m 16,0 v 6 l 4,-2 -2,-4 h -2 m -18.3974,17.1713 c -2.203,1.3339 -0.2801,4.9981 2.0795,3.6574 2.4269,-1.3787 0.2343,-5.0584 -2.0795,-3.6574 m 22.3974,0.8287 v 2 l 1,1 4,-4 -5,1 m -16,6 12,-5 c -5.363,0.004 -9.595,-0.4457 -12,5 m -7,8.006 c -6.7958,0.097 -6.9727,10.698 0,10.698 6.98,0 6.801,-10.794 0,-10.698 m 9,4.994 c 0.77,9.651 5.32,10.317 14,12 1.028,-7.057 -9.228,-8.408 -14,-12 m 18,14 8,1 c -1.446,-4.355 -5.498,-4.856 -8,-1 m -35,1 c 3.8088,8.15 3.8035,14.986 12,20 -3.1078,-9.807 0.359,-17.407 -12,-20 m 28,20 c 6.105,-1.812 9.507,-10.871 13,-16 -8.56,-1.094 -10.333,9.584 -13,16 m -50,-6 c 2.5092,6.579 15.0788,9.137 21,13 -2.5088,-9.504 -13.3565,-9.153 -21,-13 m -8,2 c 1.0004,3.036 1.8628,3.494 5,3 l -5,-3 m 33.5787,6.082 c -2.0389,1.534 -0.3286,5.082 2.1181,3.747 2.7332,-1.492 0.3937,-5.637 -2.1181,-3.747 m 25.4213,6.918 c 6.77,-3.758 -1.778,-7.801 0,0 z" /><path
       style="fill:#000000"
       d="m -359.5,108.34506 c -1.1,-0.23261 -3.0278,-0.64282 -4.28401,-0.91158 -4.14417,-0.88663 -4.69853,-4.34728 -1.79966,-11.23469 1.42102,-3.37619 2.59355,-7.16458 2.60563,-8.41866 0.0121,-1.25407 0.92785,-4.277 2.03505,-6.71761 2.57858,-5.68403 1.96488,-7.46155 -2.31715,-6.71133 -13.59989,2.38273 -12.12834,0.68189 -13.23986,15.30282 -1.4623,19.23509 -3.41056,20.64876 -17.76267,12.88872 -15.69639,-8.48689 -19.76773,-9.02273 -21.31399,-2.80519 -0.53897,2.16725 -1.81557,4.15567 -3.06669,4.77667 -1.17884,0.58513 -2.8195,1.62503 -3.6459,2.31088 -1.72593,1.4324 -3.04955,-14.29955 -1.56047,-18.54716 1.00961,-2.87993 5.33276,-3.94844 9.27608,-2.29268 1.6905,0.70983 6.44864,1.60609 10.57364,1.99168 5.03783,0.47093 8.73108,1.44294 11.25,2.96085 4.18441,2.52155 5.16086,1.15748 2.3071,-3.22296 -1.32181,-2.02895 -5.13998,-16.84456 -6.27478,-24.34794 -0.2951,-1.95129 -1.29665,-3.50801 -2.65518,-4.127 -11.87597,-5.41105 -15.39683,-17.897835 -10.40895,-36.915501 2.10835,-8.038674 2.13832,-8.679577 0.60518,-12.943057 -1.61205,-4.482926 -1.61177,-4.484767 0.47718,-3.097759 7.34366,4.87601 12.0305,17.00766 10.56531,27.347772 -0.85325,6.02156 0.62837,20.938045 2.17466,21.893705 4.15685,2.56908 7.25132,-12.640588 5.91642,-29.079827 -1.01836,-12.54098 -0.57812,-15.854859 2.43888,-18.358755 2.34904,-1.949528 2.17806,-2.217082 -4.54412,-7.110655 -4.93113,-3.589734 -17.85557,-17.220628 -28.78529,-30.358704 -1.47252,-1.770038 -1.42526,-1.838932 0.78834,-1.149366 1.29511,0.403443 4.32708,0.181315 6.73771,-0.49362 3.90325,-1.092842 5.035,-0.98331 10.34034,1.000756 4.70052,1.757878 7.01975,2.081798 10.99291,1.535349 6.3842,-0.878052 13.07429,0.185093 13.07429,2.07768 0,0.776656 0.37914,1.412102 0.84253,1.412102 0.46339,0 1.70089,1.6875 2.75,3.75 1.04911,2.0625 2.01766,3.935186 2.15233,4.161524 0.13467,0.226338 1.34425,-0.867918 2.68795,-2.431681 2.89764,-3.372193 2.12402,-5.867462 -2.15643,-6.955518 -2.69725,-0.685617 -2.63704,-0.758899 2.11235,-2.571045 2.6888,-1.025922 5.86781,-2.785106 7.06445,-3.909297 4.83559,-4.542801 11.19913,-0.0072 10.22611,7.288604 -0.62033,4.651397 -1.50609,5.728295 -2.80398,3.409083 -1.19696,-2.138845 -3.21766,-2.239012 -4.87531,-0.24167 -1.48452,1.788739 -0.67048,1.916887 2.31574,0.364545 3.53426,-1.83723 1.68469,-0.39747 -6.54135,5.091993 -7.68741,5.130021 -10.89533,8.071322 -7.29699,6.690509 1.52626,-0.585682 1.61002,-0.45731 0.5416,0.830061 C -372.67759,-8.683556 -372.79604,-8 -372.24489,-8 c 1.33546,0 3.38161,-2.529951 2.64328,-3.268273 -0.79093,-0.790939 4.81778,-3.55953 6.20152,-3.061217 0.60496,0.217855 1.65036,-0.267139 2.32312,-1.077764 0.67276,-0.810625 1.8624,-1.22858 2.64364,-0.928787 0.83939,0.322102 1.72989,-0.279404 2.17689,-1.470428 0.74546,-1.986248 0.79873,-1.981704 3.66947,0.313039 2.91302,2.328545 2.91302,2.328545 -1.01538,3.386354 C -358.68736,-12.737825 -367,-7.45879 -367,-5.598749 c 0,0.794914 -1.125,2.782285 -2.5,4.41638 -3.67315,4.365289 -3.34827,8.60204 0.95153,12.408793 1.89835,1.680666 3.7341,4.342265 4.07946,5.914666 1.06376,4.843262 4.46901,2.648081 4.46901,-2.880928 0,-10.161909 10.8393,-19.214667 21.55981,-18.00631 26.40235,2.975928 23.0197,40.539417 -3.55981,39.530762 C -349.5,35.5 -349.5,35.5 -349.82384,39.5 c -0.46029,5.685279 -2.66326,7.768944 -7.65634,7.241679 -2.62917,-0.277639 -5.30334,0.212539 -7.72998,1.416916 C -367.25075,49.171368 -370.03293,50 -371.39277,50 c -2.46646,0 -4.37483,2.948977 -3.16997,4.89849 0.82041,1.32745 14.97305,7.13616 22.56274,9.26048 11.33731,3.17327 12.39322,6.72706 5.13181,17.2717 C -356.23548,95.03335 -357.4644,100 -351.46285,100 c 2.10287,0 7.46285,6.0906 7.46285,8.48013 0,0.60208 -12.53049,0.49289 -15.5,-0.13507 z m 9,-3.07946 c -1.1,-0.26445 -2.50995,-0.89388 -3.13322,-1.39873 -0.7271,-0.58896 -1.3212,-0.42804 -1.65777,0.44904 -0.38349,0.99937 0.45908,1.37551 3.13322,1.39873 2.01177,0.0175 2.75777,-0.1846 1.65777,-0.44904 z m -31.07143,-2.83703 c 2.02377,-2.02376 1.99491,-4.30315 -0.0836,-6.59983 -3.17858,-3.51229 -7.34501,-1.62814 -7.34501,3.32157 0,4.26293 4.47089,6.23595 7.42857,3.27826 z m 24.53266,-0.35613 c 1.9779,-3.69574 -1.59126,-6.97825 -5.3192,-4.89199 -1.62842,0.91131 -2.25627,4.87198 -0.97536,6.15288 1.37943,1.37944 5.30202,0.59369 6.29456,-1.26089 z M -419,101.5 c 0,-0.275 -0.225,-0.5 -0.5,-0.5 -0.275,0 -0.5,0.225 -0.5,0.5 0,0.275 0.225,0.5 0.5,0.5 0.275,0 0.5,-0.225 0.5,-0.5 z m 28.40738,-2.01299 c -0.36174,-1.44131 -0.10442,-3.14712 0.6034,-4 C -388.97543,94.26547 -389.0737,94 -390.53966,94 c -0.98151,0 -4.07411,-0.64556 -6.87245,-1.43457 -2.79834,-0.78902 -6.88789,-1.94326 -9.08789,-2.56498 -2.2,-0.62172 -4.50351,-1.344 -5.1189,-1.60506 -0.71924,-0.30511 -0.94716,0.4238 -0.63808,2.04066 0.3761,1.96743 1.27328,2.66044 4.11891,3.18158 4.8901,0.89554 13.31475,4.66752 15.01051,6.72068 2.01625,2.44117 3.25675,2.02459 2.53494,-0.8513 z M -418,98.5 c 0,-0.275 -0.225,-0.5 -0.5,-0.5 -0.275,0 -0.5,0.225 -0.5,0.5 0,0.275 0.225,0.5 0.5,0.5 0.275,0 0.5,-0.225 0.5,-0.5 z m -2.5427,-1.4309 c 0.31643,-0.512 0.11798,-1.21356 -0.44099,-1.55902 -0.55897,-0.34546 -1.01631,0.0734 -1.01631,0.9309 0,1.75653 0.60006,2.01516 1.4573,0.62812 z m 63.53976,-2.97261 c 0.006,-2.7352 5.02492,-11.96862 7.61237,-14.00391 2.81384,-2.21336 2.79806,-2.22988 -3.74937,-3.92707 -3.63994,-0.94352 -3.63994,-0.94352 -4.27368,3.01967 -0.34856,2.17975 -1.90793,6.77335 -3.46527,10.20799 -2.83153,6.24481 -2.83153,6.24481 0.52074,6.17582 2.17642,-0.0448 3.3533,-0.56128 3.35521,-1.4725 z m -57.97248,-0.6261 C -413.29446,91.44495 -415.22013,87 -417.77856,87 -420.02751,87 -422,88.86902 -422,91 c 0,3.67022 4.66674,5.3114 7.02458,2.47039 z M -378.5,85.08562 c 0,-9.9153 0,-9.9153 -5.23424,-10.57045 -2.87883,-0.36033 -5.49288,-1.07365 -5.80901,-1.58516 -1.39948,-2.2644 -2.36402,-0.65098 -1.08803,1.81999 0.78104,1.5125 1.99349,6.16691 2.69432,10.34313 1.27425,7.59313 1.27425,7.59313 5.3556,8.60067 2.24475,0.55414 4.08136,1.07494 4.08136,1.15733 z m 34.02718,-10.1296 c 0.99872,-1.61597 -2.26532,-5.85219 -5.04712,-6.55038 -2.77858,-0.69738 -7.84819,1.98996 -7.2334,3.83433 0.74962,2.24886 11.14792,4.54863 12.28052,2.71605 z M -358,71.63486 c 0,-0.75083 0.88883,-2.4951 1.97517,-3.87616 1.97517,-2.51102 1.97517,-2.51102 -2.03735,-3.15265 -6.09653,-0.97488 -12.19504,-3.3143 -13.16689,-5.05088 -1.47577,-2.63706 -2.3894,-1.72706 -1.95988,1.95209 0.25198,2.15833 -0.20986,4.45246 -1.2008,5.96482 -0.88564,1.35165 -1.60683,2.58589 -1.60265,2.74274 0.004,0.15685 3.17946,0.33297 7.05619,0.39137 3.87673,0.0584 7.56331,0.62091 8.1924,1.25 1.54019,1.54019 2.74381,1.4431 2.74381,-0.22133 z m -20.45454,-5.08941 c 6.21183,-6.21183 -1.76113,-17.539023 -8.63212,-12.26365 -4.51036,3.46295 -4.58595,9.25737 -0.1661,12.73402 3.34937,2.63461 5.82562,2.50223 8.79822,-0.47037 z M -401.72432,50.75 c -2.23991,-4.099679 -2.50467,-21.564227 -0.36598,-24.141199 C -400.92583,25.2057 -401.06484,25 -403.17755,25 c -1.33235,0 -3.06301,-0.5625 -3.84592,-1.25 -0.80779,-0.709357 -0.7232,-0.384971 0.19559,0.75 1.19037,1.470462 1.72636,4.780073 2.02435,12.5 0.36664,9.498285 2.28836,17 4.35489,17 0.275,0 -0.29906,-1.4625 -1.27568,-3.25 z m 24.0664,0.800928 c 0.37092,-0.966605 0.0755,-1.264666 -0.88726,-0.895216 -0.79384,0.304622 -1.19436,0.956704 -0.89006,1.449073 0.76643,1.240105 1.13272,1.125955 1.77732,-0.553857 z m -8.33294,-2.039918 C -387.2399,48.006016 -389,48.326556 -389,50.059017 -389,50.576558 -388.0449,51 -386.87756,51 c 1.76626,0 1.91507,-0.24988 0.8867,-1.48899 z M -367.75,45.719704 c 8.03978,-1.392053 9.0883,-6.449117 1.11043,-5.355628 -2.55177,0.349758 -5.47677,0.635924 -6.5,0.635924 -1.17491,0 -1.86043,0.715205 -1.86043,1.940983 0,1.067541 -0.45,2.219098 -1,2.559017 -1.7506,1.081931 -1.10964,2.760927 0.75,1.964635 0.9625,-0.412139 4.3375,-1.197358 7.5,-1.744931 z M -378.2,44.8 c 1.45559,-1.455595 1.58227,-5.445713 0.2,-6.3 -1.52364,-0.941663 -1.19221,-10.104206 0.51313,-14.185659 1.76076,-4.214088 1.26171,-5.325536 -1.33574,-2.974877 -2.12256,1.92089 -4.47165,2.108604 -7.31882,0.584842 -1.84295,-0.986314 -1.91358,-0.895613 -0.85006,1.091594 0.63794,1.192008 1.00951,4.780485 0.82569,7.974392 -0.3342,5.807105 -0.3342,5.807105 2.9158,5.277564 2.26888,-0.369681 3.25,-0.137845 3.25,0.767968 0,0.71363 -0.28417,1.013342 -0.63148,0.666026 -0.34732,-0.347315 -1.47232,-0.181482 -2.5,0.368518 C -386.55245,39.901216 -384.9131,46 -381,46 c 0.88,0 2.14,-0.54 2.8,-1.2 z m 24,-2 c 1.74058,-1.74058 1.47114,-4.542694 -0.55,-5.719901 -1.68759,-0.98293 -1.48299,-1.153519 1.73364,-1.445449 2.59714,-0.235707 2.04094,-3.05387 -1.08849,-5.515191 -2.61134,-2.053839 -3.37852,-2.220249 -5.59016,-1.212559 -1.40989,0.64239 -2.84279,0.864526 -3.18422,0.493636 -0.34142,-0.37089 -0.12208,-0.853967 0.48742,-1.073504 3.8982,-1.404091 4.53478,-2.760829 2.97874,-6.348562 -0.82975,-1.913158 -1.52626,-2.91597 -1.54779,-2.22847 -0.0215,0.6875 -0.73726,1.25 -1.59053,1.25 -1.24088,0 -1.50682,1.101446 -1.32874,5.503253 0.18647,4.609013 -0.16653,5.917515 -2.17241,8.05267 -3.55239,3.781352 4.00395,6.769903 8.07601,3.194077 0.7829,-0.6875 0.59333,-0.25426 -0.42128,0.962755 -3.13273,3.75767 0.74844,7.536613 4.19781,4.087245 z m -16.53213,-6.336051 c 5.74311,-3.902547 5.76252,-18.80032 0.0321,-24.668768 -2.74363,-2.809732 -3.7,-4.636478 -3.7,-7.067308 0,-3.278164 0,-3.278164 -3.26743,-1.753018 -4.05091,1.890847 -4.08871,2.301258 -0.34223,3.715397 5.11329,1.930052 5.67758,8.389798 2.45116,28.059748 -0.81135,4.946399 -0.23291,5.151815 4.82637,1.713949 z m 41.24321,-6.904599 c 16.81027,-12.821824 1.56453,-39.3216 -17.71572,-30.793027 -12.16777,5.382385 -14.39663,27.19992 -3.16131,30.945026 C -349.24907,30.083644 -344,20.06664 -344,17.56295 -344,16.703327 -343.325,16 -342.5,16 c 1.66542,0 2.05109,2.541377 0.52847,3.482403 -1.16055,0.717263 -5.02847,9.225713 -5.02847,11.061382 0,3.689933 12.28838,2.999106 17.51108,-0.984435 z M -378.82874,16.345012 C -375.30406,13.155217 -377.52804,7 -382.20525,7 c -3.51435,0 -6.05677,3.107834 -5.2317,6.395178 1.11026,4.423633 5.36762,5.882531 8.60821,2.949834 z m -4.47095,-17.596643 c 0.43983,-0.688397 2.02183,-1.881219 3.51556,-2.650714 1.49373,-0.769496 2.48286,-1.776107 2.19806,-2.236915 -0.28479,-0.460807 0.17677,-0.571296 1.0257,-0.245531 1.99516,0.765614 3.35057,-2.508803 1.5095,-3.646651 -1.04383,-0.645122 -0.79828,-1.282371 1.10428,-2.865806 1.34562,-1.119917 1.97967,-2.051185 1.409,-2.069483 -0.57068,-0.0183 -3.25376,2.216731 -5.96241,4.966731 -2.70865,2.75 -4.52579,5 -4.03809,5 0.48769,0 -0.17016,1.125 -1.46191,2.5 -1.29174,1.375 -1.84255,2.5 -1.224,2.5 0.61854,0 1.48448,-0.563234 1.92431,-1.251631 z m 3.51939,-6.314315 c 1.49583,-1.555396 2.9528,-2.594892 3.2377,-2.309989 0.2849,0.284902 -0.93896,1.557499 -2.7197,2.827993 -3.2377,2.30999 -3.2377,2.30999 -0.518,-0.518004 z m -2.26334,-2.847603 c 6.45636,-6.556687 6.45636,-6.556687 4.39823,-9.313328 -7.30662,-9.786432 -24.03719,0.422082 -19.32723,11.792926 2.00109,4.831058 3.92563,2.649694 3.95899,-4.487308 0.0212,-4.535888 2.54824,-6.598316 7.91864,-6.46274 2.52725,0.0638 3.83245,0.316994 2.90044,0.56265 -0.98442,0.259468 -1.46343,1.049012 -1.14301,1.883999 0.30335,0.790543 0.20478,2.22485 -0.21906,3.18735 -0.42385,0.9625 -0.80949,2.103914 -0.85699,2.536475 -0.11557,1.052388 -2.76556,2.679147 -4.39539,2.698212 -0.71996,0.0084 -1.06241,-0.383699 -0.76101,-0.87138 0.30141,-0.487681 -0.12204,-1.442782 -0.94098,-2.122445 -1.26088,-1.046441 -1.48899,-0.788048 -1.48899,1.686693 0,1.607345 -0.55874,3.481183 -1.24164,4.164086 -0.98886,0.988854 -0.94893,1.422548 0.19612,2.130224 1.98804,1.228681 3.55611,0.176064 11.00188,-7.385414 z M -383.5,-12 c 0.33992,-0.55 0.84303,-1 1.11803,-1 0.275,0 0.22189,0.45 -0.11803,1 -0.33992,0.55 -0.84303,1 -1.11803,1 -0.275,0 -0.22189,-0.45 0.11803,-1 z m 1.5318,-2.639216 c 0.0451,-1.220288 2.8613,-4.801572 3.37179,-4.287783 0.23334,0.234849 -0.43701,1.489352 -1.48967,2.787783 -1.05266,1.298431 -1.89961,1.973431 -1.88212,1.5 z M -364,-13.570368 c 0,-0.275 -0.9,-0.01833 -2,0.570368 -1.1,0.588702 -2,1.295368 -2,1.570368 0,0.275 0.9,0.01833 2,-0.570368 1.1,-0.588702 2,-1.295368 2,-1.570368 z m -21.60718,-0.708099 c 0.85675,-1.3762 0.7679,-1.994751 -0.39282,-2.734687 -2.18899,-1.395438 -3.9821,-1.197062 -4.63837,0.513154 -1.56215,4.070894 2.70647,5.955715 5.03119,2.221533 z m -14.38683,-8.729945 c 2.58504,-3.63036 2.52246,-3.991588 -0.69154,-3.991588 -6.22322,0 -8.90911,5.951759 -5.09998,11.301196 2.21447,3.109937 2.21447,3.109937 3.00599,-0.699671 0.43534,-2.095284 1.68882,-5.069755 2.78553,-6.609937 z M -367,-18.275731 c 0,-0.43705 -0.9,-0.312971 -2,0.275731 -1.1,0.588702 -2,1.508348 -2,2.043658 0,0.539143 0.89212,0.41615 2,-0.275731 1.1,-0.686961 2,-1.606607 2,-2.043658 z M -354,-16.5 c 0,-0.275 -0.225,-0.5 -0.5,-0.5 -0.275,0 -0.5,0.225 -0.5,0.5 0,0.275 0.225,0.5 0.5,0.5 0.275,0 0.5,-0.225 0.5,-0.5 z m -9.4093,-4.242636 c -0.6935,-0.693498 -2.5907,0.715543 -2.5907,1.924098 0,0.663093 0.57378,0.587231 1.52417,-0.201518 0.83829,-0.69572 1.31823,-1.470881 1.06653,-1.72258 z m -43.81519,-4.466941 c 0.90127,-1.490267 1.34144,-3.006811 0.97815,-3.370096 -1.23163,-1.231634 -5.61685,0.573255 -6.25156,2.573048 -1.47321,4.641688 2.57798,5.254004 5.27341,0.797048 z M -363.63837,-26.5 C -364.26552,-28.134326 -366,-28.56275 -366,-27.083333 c 0,0.759002 0.70084,1.275716 2.71862,2.004386 0.12023,0.04342 -0.0404,-0.596053 -0.35699,-1.421053 z m 6.05598,-0.816097 c 2.26133,-1.653524 1.70131,-5.183903 -0.82232,-5.183903 -2.32282,0 -4.1273,2.671216 -3.28582,4.864077 0.75976,1.979897 1.73412,2.055753 4.10814,0.319826 z M -355,-26.5 c 0,-0.275 -0.225,-0.5 -0.5,-0.5 -0.275,0 -0.5,0.225 -0.5,0.5 0,0.275 0.225,0.5 0.5,0.5 0.275,0 0.5,-0.225 0.5,-0.5 z"
       id="outer" /></g></svg>
