<svg width="150" height="150" overflow="hidden" version="1.1" xml:space="preserve" xmlns="http://www.w3.org/2000/svg"><defs><clipPath id="clip0"><rect x="80" y="410" width="152" height="152"/></clipPath></defs><g transform="matrix(1.1349 0 0 1.1441 -10.115 -10.805)"><g transform="matrix(.78941 0 0 .6873 -48.129 -259.03)" clip-path="url(#clip0)" fill="#00b050" stroke="#000" stroke-width="6.3333"><path d="m225.19 525.27-31.667-50.667c-0.633-0.95-1.583-1.425-2.692-1.425-1.108 0-2.058 0.633-2.691 1.425l-9.342 14.883 19.95 32.3c1.742 2.534 2.058 5.7 0.95 8.55h22.483c1.267 0 2.375-0.633 3.009-1.741 0.633-1.109 0.633-2.375 0-3.325z"/><path d="m148.24 478.24-8.075 7.283-8.075-7.125-15.2 9.183 23.275-38 23.275 38zm45.125 47.025-50.509-82.175c-0.633-0.792-1.583-1.425-2.691-1.425-1.109 0-2.059 0.475-2.692 1.425l-50.508 82.175c-0.7917 0.95-0.7917 2.375-0.3167 3.483 0.6333 0.95 1.7417 1.583 3.0083 1.583h101.02c1.267 0 2.375-0.633 3.008-1.741 0.475-1.109 0.475-2.375-0.316-3.325z"/></g><path d="m59.952 69.596c-3.7909-3.0252-3.3592-2.8814-5.3065-1.7673-0.93146 0.53293-1.7652 0.89737-1.8527 0.80987-0.12587-0.12587 8.7197-13.001 9.5602-13.915 0.18136-0.19729 10.013 13.399 10.013 13.847 0 0.08614-0.86981-0.2723-1.9329-0.79654l-1.9329-0.95316-2.9357 2.3185c-1.6146 1.2752-3.0271 2.3074-3.1388 2.2938-0.11173-0.01362-1.2251-0.84026-2.4741-1.837z" fill="#fff" stroke="#fff" stroke-width=".30279"/></g></svg>
